<?xml version="1.0" encoding="UTF-8" standalone="no"?><!-- Generator: Gravit.io --><svg xmlns="http://www.w3.org/2000/svg" xmlns:xlink="http://www.w3.org/1999/xlink" style="isolation:isolate" viewBox="0 0 500 500" width="500pt" height="500pt"><defs><clipPath id="_clipPath_HlGwaycHlJOzj2ibFmsvts6caW06trCP"><rect width="500" height="500"/></clipPath></defs><g clip-path="url(#_clipPath_HlGwaycHlJOzj2ibFmsvts6caW06trCP)"><path d="M 35 0 L 465 0 C 484.317 0 500 15.683 500 35 L 500 465 C 500 484.317 484.317 500 465 500 L 35 500 C 15.683 500 0 484.317 0 465 L 0 35 C 0 15.683 15.683 0 35 0 Z" style="stroke:none;fill:#FFFFFF;stroke-miterlimit:10;"/><path d=" M 458.06 325.405 C 463.348 332.808 462.291 342.326 455.945 347.614 C 448.542 352.902 437.966 351.845 432.679 345.499 L 395.664 297.909 L 359.706 344.442 C 354.418 351.845 343.843 351.845 336.44 346.557 C 329.037 341.269 327.979 331.751 333.267 324.348 L 375.57 269.354 L 333.267 214.361 C 327.979 206.958 330.094 196.382 336.44 191.094 C 343.843 185.806 354.418 187.921 359.706 194.267 L 395.664 241.857 L 432.679 196.382 C 437.966 188.979 447.485 187.921 455.945 193.209 C 463.348 198.497 463.348 209.073 458.06 216.476 L 416.815 270.412 L 458.06 325.405 Z  M 265.583 319.06 C 238.086 319.06 215.877 297.909 215.877 270.412 C 215.877 243.972 238.086 221.764 265.583 221.764 C 293.079 221.764 315.288 243.972 315.288 270.412 C 314.231 297.909 292.022 319.06 265.583 319.06 Z  M 119.638 319.06 C 92.141 319.06 69.932 297.909 69.932 270.412 C 69.932 243.972 92.141 221.764 119.638 221.764 C 147.135 221.764 169.344 243.972 169.344 270.412 C 169.344 297.909 147.135 319.06 119.638 319.06 Z  M 265.583 190.036 C 234.913 190.036 207.416 206.958 193.668 232.339 C 179.919 206.958 152.423 190.036 120.696 190.036 C 101.659 190.036 84.738 196.382 70.99 205.9 L 70.99 138.216 C 70.99 129.755 63.587 122.352 55.126 122.352 C 45.608 122.352 38.205 129.755 38.205 138.216 L 38.205 271.469 C 39.263 315.887 75.22 350.787 119.638 350.787 C 151.365 350.787 178.862 332.808 192.61 307.427 C 206.359 332.808 233.855 350.787 264.525 350.787 C 310 350.787 347.015 314.83 347.015 269.354 C 348.073 225.994 311.058 190.036 265.583 190.036 Z " fill="rgb(0,113,247)"/></g></svg>